PathFileType	4	(X/Y/Z)	E:/New_biomech_experiments/Elbow Flexion/Shreyas_25_06_24_elbow_flexion/Session 2024-06-26/Shreyas_ElbFlex_pp_t02_26_06_24.trc	
DataRate	CameraRate	NumFrames	NumMarkers	Units	OrigDataRate	OrigDataStartFrame	OrigNumFrames	
120.00	120.00	16	19	m	120.00	605	4832	
Frame#	Time	LFHD			LBHD			T10			C7			RBHD			PRSHO			RSHO			STRN			RFHD			CLAV			RWRA			RWRB			ARSHO			MRELB			RFRM			RHAND			RELB			RUPA			MRHAND			
		X1	Y1	Z1	X2	Y2	Z2	X3	Y3	Z3	X4	Y4	Z4	X5	Y5	Z5	X6	Y6	Z6	X7	Y7	Z7	X8	Y8	Z8	X9	Y9	Z9	X10	Y10	Z10	X11	Y11	Z11	X12	Y12	Z12	X13	Y13	Z13	X14	Y14	Z14	X15	Y15	Z15	X16	Y16	Z16	X17	Y17	Z17	X18	Y18	Z18	X19	Y19	Z19	

605	5.033	0.08440	1.84017	-0.04107	-0.02070	1.73915	-0.06273	-0.07441	1.33882	-0.01976	-0.04831	1.54934	-0.00544	-0.03678	1.75667	0.07396	-0.07954	1.45241	0.12030	0.03735	1.50226	0.20668	0.18451	1.34298	-0.00499	0.06605	1.82319	0.08558	0.14803	1.46727	0.00258	0.24626	1.15834	0.16077	0.25925	1.13500	0.25708	0.12467	1.45676	0.11468	-0.00862	1.14168	0.16510	0.13444	1.16938	0.26173	0.38187	1.14787	0.15003	0.00098	1.19113	0.27464	0.01267	1.30936	0.25288	0.35335	1.11077	0.26256 
606	5.042	0.08431	1.84017	-0.04112	-0.02077	1.73915	-0.06277	-0.07450	1.33888	-0.01980	-0.04835	1.54935	-0.00549	-0.03685	1.75666	0.07392	-0.07957	1.45241	0.12027	0.03733	1.50228	0.20664	0.18450	1.34300	-0.00505	0.06597	1.82318	0.08554	0.14800	1.46730	0.00251	0.24624	1.15834	0.16067	0.25925	1.13500	0.25697	0.12466	1.45681	0.11465	-0.00865	1.14169	0.16505	0.13443	1.16938	0.26165	0.38184	1.14775	0.14981	0.00098	1.19114	0.27458	0.01266	1.30938	0.25284	0.35334	1.11075	0.26242 
607	5.050	0.08422	1.84016	-0.04117	-0.02083	1.73915	-0.06281	-0.07462	1.33896	-0.01985	-0.04838	1.54935	-0.00555	-0.03692	1.75664	0.07387	-0.07960	1.45242	0.12023	0.03731	1.50229	0.20659	0.18448	1.34303	-0.00510	0.06590	1.82317	0.08549	0.14798	1.46732	0.00243	0.24623	1.15834	0.16057	0.25925	1.13500	0.25686	0.12465	1.45686	0.11463	-0.00867	1.14171	0.16499	0.13443	1.16939	0.26157	0.38181	1.14760	0.14955	0.00098	1.19114	0.27452	0.01266	1.30939	0.25279	0.35334	1.11074	0.26229 
608	5.058	0.08413	1.84015	-0.04123	-0.02090	1.73915	-0.06286	-0.07478	1.33908	-0.01990	-0.04842	1.54936	-0.00560	-0.03698	1.75662	0.07381	-0.07963	1.45243	0.12019	0.03729	1.50231	0.20654	0.18447	1.34306	-0.00516	0.06583	1.82315	0.08544	0.14795	1.46735	0.00236	0.24621	1.15835	0.16046	0.25924	1.13500	0.25675	0.12463	1.45690	0.11459	-0.00870	1.14172	0.16493	0.13443	1.16940	0.26149	0.38178	1.14742	0.14927	0.00099	1.19115	0.27445	0.01265	1.30940	0.25273	0.35333	1.11073	0.26215 
609	5.067	0.08405	1.84014	-0.04129	-0.02097	1.73915	-0.06291	-0.07498	1.33924	-0.01995	-0.04845	1.54936	-0.00566	-0.03705	1.75660	0.07376	-0.07965	1.45244	0.12014	0.03727	1.50232	0.20648	0.18445	1.34308	-0.00521	0.06576	1.82312	0.08539	0.14793	1.46737	0.00229	0.24620	1.15835	0.16035	0.25924	1.13500	0.25663	0.12462	1.45692	0.11454	-0.00872	1.14174	0.16487	0.13444	1.16941	0.26140	0.38175	1.14727	0.14900	0.00100	1.19115	0.27438	0.01264	1.30941	0.25267	0.35333	1.11073	0.26201 
610	5.075	0.08397	1.84012	-0.04135	-0.02103	1.73914	-0.06297	-0.07524	1.33947	-0.02000	-0.04848	1.54937	-0.00573	-0.03711	1.75659	0.07370	-0.07968	1.45246	0.12010	0.03725	1.50234	0.20642	0.18443	1.34310	-0.00527	0.06569	1.82310	0.08533	0.14791	1.46739	0.00221	0.24618	1.15836	0.16025	0.25924	1.13501	0.25651	0.12461	1.45695	0.11449	-0.00874	1.14175	0.16481	0.13444	1.16942	0.26132	0.38173	1.14716	0.14877	0.00100	1.19116	0.27431	0.01264	1.30942	0.25261	0.35333	1.11074	0.26188 
611	5.083	0.08388	1.84012	-0.04142	-0.02109	1.73912	-0.06303	-0.07560	1.33978	-0.02005	-0.04851	1.54937	-0.00579	-0.03717	1.75657	0.07364	-0.07970	1.45247	0.12005	0.03723	1.50235	0.20636	0.18442	1.34312	-0.00533	0.06561	1.82308	0.08527	0.14790	1.46741	0.00214	0.24617	1.15837	0.16014	0.25924	1.13501	0.25639	0.12460	1.45697	0.11444	-0.00876	1.14177	0.16474	0.13444	1.16943	0.26123	0.38170	1.14708	0.14857	0.00101	1.19117	0.27424	0.01263	1.30944	0.25255	0.35334	1.11074	0.26174 
612	5.092	0.08380	1.84012	-0.04149	-0.02114	1.73913	-0.06309	-0.07595	1.34008	-0.02011	-0.04854	1.54937	-0.00585	-0.03724	1.75655	0.07357	-0.07973	1.45249	0.12000	0.03721	1.50237	0.20629	0.18440	1.34315	-0.00538	0.06554	1.82307	0.08520	0.14788	1.46743	0.00206	0.24616	1.15839	0.16003	0.25924	1.13502	0.25627	0.12460	1.45700	0.11439	-0.00877	1.14179	0.16467	0.13445	1.16945	0.26114	0.38167	1.14702	0.14838	0.00102	1.19118	0.27417	0.01262	1.30945	0.25248	0.35334	1.11075	0.26160 
613	5.100	0.08372	1.84014	-0.04156	-0.02118	1.73913	-0.06315	-0.07606	1.34015	-0.02017	-0.04857	1.54937	-0.00591	-0.03730	1.75654	0.07350	-0.07975	1.45251	0.11995	0.03719	1.50239	0.20622	0.18439	1.34316	-0.00544	0.06547	1.82305	0.08513	0.14787	1.46746	0.00199	0.24616	1.15841	0.15993	0.25925	1.13502	0.25616	0.12459	1.45704	0.11434	-0.00878	1.14181	0.16460	0.13445	1.16947	0.26105	0.38164	1.14696	0.14820	0.00102	1.19119	0.27409	0.01262	1.30947	0.25242	0.35335	1.11075	0.26147 
614	5.108	0.08365	1.84015	-0.04164	-0.02123	1.73913	-0.06322	-0.07592	1.34000	-0.02022	-0.04860	1.54937	-0.00597	-0.03735	1.75653	0.07344	-0.07978	1.45253	0.11990	0.03718	1.50241	0.20615	0.18437	1.34318	-0.00550	0.06540	1.82303	0.08506	0.14785	1.46748	0.00191	0.24616	1.15844	0.15982	0.25925	1.13503	0.25605	0.12459	1.45707	0.11429	-0.00879	1.14183	0.16453	0.13446	1.16948	0.26095	0.38162	1.14693	0.14803	0.00103	1.19120	0.27402	0.01262	1.30949	0.25235	0.35336	1.11077	0.26134 
615	5.117	0.08357	1.84017	-0.04172	-0.02128	1.73913	-0.06329	-0.07580	1.33986	-0.02028	-0.04863	1.54936	-0.00603	-0.03741	1.75652	0.07337	-0.07980	1.45255	0.11985	0.03716	1.50244	0.20608	0.18436	1.34321	-0.00555	0.06533	1.82301	0.08498	0.14784	1.46750	0.00183	0.24616	1.15847	0.15971	0.25926	1.13504	0.25594	0.12458	1.45711	0.11423	-0.00879	1.14186	0.16446	0.13447	1.16950	0.26086	0.38162	1.14694	0.14789	0.00103	1.19122	0.27394	0.01261	1.30951	0.25229	0.35337	1.11079	0.26122 
616	5.125	0.08351	1.84018	-0.04180	-0.02133	1.73912	-0.06336	-0.07581	1.33984	-0.02033	-0.04866	1.54934	-0.00609	-0.03746	1.75651	0.07330	-0.07983	1.45257	0.11979	0.03714	1.50246	0.20600	0.18434	1.34323	-0.00560	0.06526	1.82299	0.08490	0.14782	1.46752	0.00176	0.24616	1.15851	0.15961	0.25927	1.13506	0.25583	0.12457	1.45714	0.11417	-0.00879	1.14188	0.16439	0.13448	1.16953	0.26077	0.38163	1.14695	0.14775	0.00104	1.19124	0.27386	0.01261	1.30953	0.25222	0.35338	1.11081	0.26110 
617	5.133	0.08344	1.84020	-0.04188	-0.02138	1.73912	-0.06343	-0.07581	1.33982	-0.02039	-0.04869	1.54932	-0.00614	-0.03752	1.75651	0.07322	-0.07985	1.45259	0.11974	0.03712	1.50250	0.20593	0.18433	1.34325	-0.00566	0.06519	1.82297	0.08481	0.14780	1.46755	0.00168	0.24617	1.15854	0.15950	0.25928	1.13508	0.25573	0.12456	1.45717	0.11411	-0.00879	1.14191	0.16432	0.13449	1.16956	0.26068	0.38163	1.14696	0.14761	0.00105	1.19126	0.27378	0.01261	1.30956	0.25215	0.35339	1.11084	0.26098 
618	5.142	0.08339	1.84021	-0.04197	-0.02143	1.73912	-0.06351	-0.07568	1.33968	-0.02044	-0.04871	1.54929	-0.00619	-0.03757	1.75652	0.07314	-0.07988	1.45261	0.11968	0.03710	1.50253	0.20585	0.18432	1.34327	-0.00571	0.06513	1.82295	0.08472	0.14779	1.46757	0.00161	0.24617	1.15858	0.15940	0.25929	1.13511	0.25563	0.12455	1.45720	0.11404	-0.00878	1.14193	0.16425	0.13450	1.16959	0.26059	0.38163	1.14697	0.14746	0.00106	1.19129	0.27371	0.01261	1.30959	0.25208	0.35341	1.11088	0.26086 
619	5.150	0.08333	1.84021	-0.04207	-0.02148	1.73911	-0.06360	-0.07553	1.33951	-0.02050	-0.04874	1.54927	-0.00625	-0.03762	1.75652	0.07306	-0.07990	1.45263	0.11963	0.03707	1.50256	0.20577	0.18430	1.34330	-0.00576	0.06507	1.82294	0.08462	0.14777	1.46760	0.00154	0.24618	1.15862	0.15930	0.25931	1.13515	0.25553	0.12453	1.45722	0.11397	-0.00877	1.14195	0.16418	0.13452	1.16962	0.26050	0.38164	1.14699	0.14733	0.00107	1.19131	0.27364	0.01261	1.30962	0.25202	0.35342	1.11093	0.26075 
620	5.158	0.08328	1.84022	-0.04217	-0.02153	1.73910	-0.06369	-0.07546	1.33942	-0.02055	-0.04878	1.54925	-0.00630	-0.03767	1.75653	0.07297	-0.07993	1.45265	0.11957	0.03705	1.50259	0.20569	0.18429	1.34332	-0.00582	0.06501	1.82294	0.08452	0.14775	1.46763	0.00147	0.24618	1.15866	0.15920	0.25932	1.13518	0.25543	0.12452	1.45725	0.11390	-0.00876	1.14198	0.16412	0.13453	1.16965	0.26041	0.38165	1.14703	0.14721	0.00108	1.19133	0.27357	0.01261	1.30965	0.25196	0.35344	1.11097	0.26064 
